<svg width="228" height="73" viewBox="0 0 228 73" fill="none" xmlns="http://www.w3.org/2000/svg">
<path d="M50.5 0L79.5118 50.25H21.4881L50.5 0Z" fill="#3F3F3F"/>
<path d="M33.5 6L62.5118 56.25H4.48815L33.5 6Z" fill="#F9B130"/>
<path d="M87.2031 6.54688H89.5156V16.0781H92.8281V6.54688H95.1328V16.0781H98.5547V6.54688H100.859L100.875 18.0078L87.2031 18V6.54688ZM104.867 12.2344L102.875 11.875C103.099 11.0729 103.484 10.4792 104.031 10.0938C104.578 9.70833 105.391 9.51562 106.469 9.51562C107.448 9.51562 108.177 9.63281 108.656 9.86719C109.135 10.0964 109.471 10.3906 109.664 10.75C109.862 11.1042 109.961 11.7578 109.961 12.7109L109.938 15.2734C109.938 16.0026 109.971 16.5417 110.039 16.8906C110.112 17.2344 110.245 17.6042 110.438 18H108.266C108.208 17.8542 108.138 17.638 108.055 17.3516C108.018 17.2214 107.992 17.1354 107.977 17.0938C107.602 17.4583 107.201 17.7318 106.773 17.9141C106.346 18.0964 105.891 18.1875 105.406 18.1875C104.552 18.1875 103.878 17.9557 103.383 17.4922C102.893 17.0286 102.648 16.4427 102.648 15.7344C102.648 15.2656 102.76 14.849 102.984 14.4844C103.208 14.1146 103.521 13.8333 103.922 13.6406C104.328 13.4427 104.911 13.2708 105.672 13.125C106.698 12.9323 107.409 12.7526 107.805 12.5859V12.3672C107.805 11.9453 107.701 11.6458 107.492 11.4688C107.284 11.2865 106.891 11.1953 106.312 11.1953C105.922 11.1953 105.617 11.2734 105.398 11.4297C105.18 11.5807 105.003 11.849 104.867 12.2344ZM107.805 14.0156C107.523 14.1094 107.078 14.2214 106.469 14.3516C105.859 14.4818 105.461 14.6094 105.273 14.7344C104.987 14.9375 104.844 15.1953 104.844 15.5078C104.844 15.8151 104.958 16.0807 105.188 16.3047C105.417 16.5286 105.708 16.6406 106.062 16.6406C106.458 16.6406 106.836 16.5104 107.195 16.25C107.461 16.0521 107.635 15.8099 107.719 15.5234C107.776 15.3359 107.805 14.9792 107.805 14.4531V14.0156ZM112.195 9.70312H114.914L116.977 15.4844L119.055 9.70312H121.766V18H119.898V12.5391L117.875 18H116L114.07 12.5391V18H112.195V9.70312ZM123.914 9.70312H125.961V10.9219C126.227 10.5052 126.586 10.1667 127.039 9.90625C127.492 9.64583 127.995 9.51562 128.547 9.51562C129.51 9.51562 130.328 9.89323 131 10.6484C131.672 11.4036 132.008 12.4557 132.008 13.8047C132.008 15.1901 131.669 16.2682 130.992 17.0391C130.315 17.8047 129.495 18.1875 128.531 18.1875C128.073 18.1875 127.656 18.0964 127.281 17.9141C126.911 17.7318 126.521 17.4193 126.109 16.9766V21.1562H123.914V9.70312ZM126.086 13.7109C126.086 14.6432 126.271 15.3333 126.641 15.7812C127.01 16.224 127.461 16.4453 127.992 16.4453C128.503 16.4453 128.927 16.2422 129.266 15.8359C129.604 15.4245 129.773 14.7526 129.773 13.8203C129.773 12.9505 129.599 12.3047 129.25 11.8828C128.901 11.4609 128.469 11.25 127.953 11.25C127.417 11.25 126.971 11.4583 126.617 11.875C126.263 12.2865 126.086 12.8984 126.086 13.7109ZM135.398 12.2344L133.406 11.875C133.63 11.0729 134.016 10.4792 134.562 10.0938C135.109 9.70833 135.922 9.51562 137 9.51562C137.979 9.51562 138.708 9.63281 139.188 9.86719C139.667 10.0964 140.003 10.3906 140.195 10.75C140.393 11.1042 140.492 11.7578 140.492 12.7109L140.469 15.2734C140.469 16.0026 140.503 16.5417 140.57 16.8906C140.643 17.2344 140.776 17.6042 140.969 18H138.797C138.74 17.8542 138.669 17.638 138.586 17.3516C138.549 17.2214 138.523 17.1354 138.508 17.0938C138.133 17.4583 137.732 17.7318 137.305 17.9141C136.878 18.0964 136.422 18.1875 135.938 18.1875C135.083 18.1875 134.409 17.9557 133.914 17.4922C133.424 17.0286 133.18 16.4427 133.18 15.7344C133.18 15.2656 133.292 14.849 133.516 14.4844C133.74 14.1146 134.052 13.8333 134.453 13.6406C134.859 13.4427 135.443 13.2708 136.203 13.125C137.229 12.9323 137.94 12.7526 138.336 12.5859V12.3672C138.336 11.9453 138.232 11.6458 138.023 11.4688C137.815 11.2865 137.422 11.1953 136.844 11.1953C136.453 11.1953 136.148 11.2734 135.93 11.4297C135.711 11.5807 135.534 11.849 135.398 12.2344ZM138.336 14.0156C138.055 14.1094 137.609 14.2214 137 14.3516C136.391 14.4818 135.992 14.6094 135.805 14.7344C135.518 14.9375 135.375 15.1953 135.375 15.5078C135.375 15.8151 135.49 16.0807 135.719 16.3047C135.948 16.5286 136.24 16.6406 136.594 16.6406C136.99 16.6406 137.367 16.5104 137.727 16.25C137.992 16.0521 138.167 15.8099 138.25 15.5234C138.307 15.3359 138.336 14.9792 138.336 14.4531V14.0156ZM142.664 18V9.70312H144.859V18H142.664ZM141.141 8.23438V6.35156H143.023V8.23438H141.141ZM144.5 8.23438V6.35156H146.391V8.23438H144.5ZM147.188 9.70312H151.992C152.977 9.70312 153.714 9.88281 154.203 10.2422C154.693 10.6016 154.938 11.1432 154.938 11.8672C154.938 12.3307 154.802 12.7344 154.531 13.0781C154.266 13.4219 153.93 13.651 153.523 13.7656C154.096 13.9062 154.523 14.1693 154.805 14.5547C155.086 14.9401 155.227 15.362 155.227 15.8203C155.227 16.4661 154.99 16.9922 154.516 17.3984C154.042 17.7995 153.341 18 152.414 18H147.188V9.70312ZM149.398 13.1484H150.812C151.495 13.1484 151.987 13.0625 152.289 12.8906C152.596 12.7188 152.75 12.4479 152.75 12.0781C152.75 11.7292 152.607 11.4818 152.32 11.3359C152.039 11.1849 151.536 11.1094 150.812 11.1094H149.398V13.1484ZM149.398 16.5938H151.133C151.758 16.5938 152.214 16.5182 152.5 16.3672C152.786 16.2161 152.93 15.9453 152.93 15.5547C152.93 15.1484 152.766 14.8698 152.438 14.7188C152.109 14.5625 151.471 14.4844 150.523 14.4844H149.398V16.5938ZM163.836 12.1562L161.672 12.5469C161.599 12.1146 161.432 11.7891 161.172 11.5703C160.917 11.3516 160.583 11.2422 160.172 11.2422C159.625 11.2422 159.188 11.4323 158.859 11.8125C158.536 12.1875 158.375 12.8177 158.375 13.7031C158.375 14.6875 158.539 15.3828 158.867 15.7891C159.201 16.1953 159.646 16.3984 160.203 16.3984C160.62 16.3984 160.961 16.2812 161.227 16.0469C161.492 15.8073 161.68 15.3984 161.789 14.8203L163.945 15.1875C163.721 16.1771 163.292 16.9245 162.656 17.4297C162.021 17.9349 161.169 18.1875 160.102 18.1875C158.888 18.1875 157.919 17.8047 157.195 17.0391C156.477 16.2734 156.117 15.2135 156.117 13.8594C156.117 12.4896 156.479 11.4245 157.203 10.6641C157.927 9.89844 158.906 9.51562 160.141 9.51562C161.151 9.51562 161.953 9.73438 162.547 10.1719C163.146 10.6042 163.576 11.2656 163.836 12.1562ZM165.555 9.70312H167.75V13.1484H169.953C170.818 13.1484 171.482 13.2109 171.945 13.3359C172.409 13.4609 172.794 13.7318 173.102 14.1484C173.409 14.5599 173.562 15.0391 173.562 15.5859C173.562 16.388 173.286 16.9922 172.734 17.3984C172.188 17.7995 171.365 18 170.266 18H165.555V9.70312ZM167.75 16.6094H169.797C170.438 16.6094 170.846 16.5052 171.023 16.2969C171.206 16.0885 171.297 15.8411 171.297 15.5547C171.297 15.1536 171.141 14.8776 170.828 14.7266C170.521 14.5755 169.971 14.5 169.18 14.5H167.75V16.6094ZM175.266 9.70312H177.453V13.0938C177.818 13.0521 178.076 12.9401 178.227 12.7578C178.378 12.5755 178.56 12.1771 178.773 11.5625C179.055 10.7448 179.362 10.2214 179.695 9.99219C180.029 9.76302 180.466 9.64844 181.008 9.64844C181.174 9.64844 181.464 9.66146 181.875 9.6875L181.883 11.1406C181.305 11.1406 180.935 11.1953 180.773 11.3047C180.612 11.4193 180.438 11.7604 180.25 12.3281C179.995 13.0938 179.628 13.5651 179.148 13.7422C179.841 13.9349 180.427 14.5365 180.906 15.5469C180.932 15.599 180.961 15.6536 180.992 15.7109L182.219 18H179.859L178.766 15.6016C178.542 15.1172 178.346 14.8073 178.18 14.6719C178.018 14.5312 177.776 14.4609 177.453 14.4609V18H175.266V9.70312ZM183.312 9.70312H185.422V14.9141L188.797 9.70312H190.953V18H188.844V12.6953L185.422 18H183.312V9.70312ZM193.156 9.70312H195.266V14.9141L198.641 9.70312H200.797V18H198.688V12.6953L195.266 18H193.156V9.70312ZM198.414 6.33594H199.484C199.422 7.04427 199.172 7.60156 198.734 8.00781C198.302 8.40885 197.74 8.60938 197.047 8.60938C196.354 8.60938 195.789 8.40885 195.352 8.00781C194.919 7.60156 194.672 7.04427 194.609 6.33594H195.68C195.716 6.70573 195.846 6.98698 196.07 7.17969C196.294 7.36719 196.62 7.46094 197.047 7.46094C197.474 7.46094 197.799 7.36719 198.023 7.17969C198.247 6.98698 198.378 6.70573 198.414 6.33594ZM87.0625 28.7031H92.6641V30.4766H89.2578V37H87.0625V28.7031ZM93.7578 28.7031H95.8047V29.9219C96.0703 29.5052 96.4297 29.1667 96.8828 28.9062C97.3359 28.6458 97.8385 28.5156 98.3906 28.5156C99.3542 28.5156 100.172 28.8932 100.844 29.6484C101.516 30.4036 101.852 31.4557 101.852 32.8047C101.852 34.1901 101.513 35.2682 100.836 36.0391C100.159 36.8047 99.3385 37.1875 98.375 37.1875C97.9167 37.1875 97.5 37.0964 97.125 36.9141C96.7552 36.7318 96.3646 36.4193 95.9531 35.9766V40.1562H93.7578V28.7031ZM95.9297 32.7109C95.9297 33.6432 96.1146 34.3333 96.4844 34.7812C96.8542 35.224 97.3047 35.4453 97.8359 35.4453C98.3464 35.4453 98.7708 35.2422 99.1094 34.8359C99.4479 34.4245 99.6172 33.7526 99.6172 32.8203C99.6172 31.9505 99.4427 31.3047 99.0938 30.8828C98.7448 30.4609 98.3125 30.25 97.7969 30.25C97.2604 30.25 96.8151 30.4583 96.4609 30.875C96.1068 31.2865 95.9297 31.8984 95.9297 32.7109ZM105.242 31.2344L103.25 30.875C103.474 30.0729 103.859 29.4792 104.406 29.0938C104.953 28.7083 105.766 28.5156 106.844 28.5156C107.823 28.5156 108.552 28.6328 109.031 28.8672C109.51 29.0964 109.846 29.3906 110.039 29.75C110.237 30.1042 110.336 30.7578 110.336 31.7109L110.312 34.2734C110.312 35.0026 110.346 35.5417 110.414 35.8906C110.487 36.2344 110.62 36.6042 110.812 37H108.641C108.583 36.8542 108.513 36.638 108.43 36.3516C108.393 36.2214 108.367 36.1354 108.352 36.0938C107.977 36.4583 107.576 36.7318 107.148 36.9141C106.721 37.0964 106.266 37.1875 105.781 37.1875C104.927 37.1875 104.253 36.9557 103.758 36.4922C103.268 36.0286 103.023 35.4427 103.023 34.7344C103.023 34.2656 103.135 33.849 103.359 33.4844C103.583 33.1146 103.896 32.8333 104.297 32.6406C104.703 32.4427 105.286 32.2708 106.047 32.125C107.073 31.9323 107.784 31.7526 108.18 31.5859V31.3672C108.18 30.9453 108.076 30.6458 107.867 30.4688C107.659 30.2865 107.266 30.1953 106.688 30.1953C106.297 30.1953 105.992 30.2734 105.773 30.4297C105.555 30.5807 105.378 30.849 105.242 31.2344ZM108.18 33.0156C107.898 33.1094 107.453 33.2214 106.844 33.3516C106.234 33.4818 105.836 33.6094 105.648 33.7344C105.362 33.9375 105.219 34.1953 105.219 34.5078C105.219 34.8151 105.333 35.0807 105.562 35.3047C105.792 35.5286 106.083 35.6406 106.438 35.6406C106.833 35.6406 107.211 35.5104 107.57 35.25C107.836 35.0521 108.01 34.8099 108.094 34.5234C108.151 34.3359 108.18 33.9792 108.18 33.4531V33.0156ZM112.422 28.7031H114.617V31.7422H117.758V28.7031H119.961V37H117.758V33.5156H114.617V37H112.422V28.7031ZM122.18 27.5781V25.5469H124.375V27.5781H122.18ZM122.18 37V28.7031H124.375V37H122.18ZM125.648 28.7031H133.156V30.4766H130.5V37H128.305V30.4766H125.648V28.7031ZM134.391 28.7031H136.586V31.7422H139.727V28.7031H141.93V37H139.727V33.5156H136.586V37H134.391V28.7031ZM144.094 28.7031H146.203V33.9141L149.578 28.7031H151.734V37H149.625V31.6953L146.203 37H144.094V28.7031ZM153.938 28.7031H156.047V33.9141L159.422 28.7031H161.578V37H159.469V31.6953L156.047 37H153.938V28.7031ZM159.195 25.3359H160.266C160.203 26.0443 159.953 26.6016 159.516 27.0078C159.083 27.4089 158.521 27.6094 157.828 27.6094C157.135 27.6094 156.57 27.4089 156.133 27.0078C155.701 26.6016 155.453 26.0443 155.391 25.3359H156.461C156.497 25.7057 156.628 25.987 156.852 26.1797C157.076 26.3672 157.401 26.4609 157.828 26.4609C158.255 26.4609 158.581 26.3672 158.805 26.1797C159.029 25.987 159.159 25.7057 159.195 25.3359ZM87.0625 47.7031H89.25V51.0938C89.6146 51.0521 89.8724 50.9401 90.0234 50.7578C90.1745 50.5755 90.3568 50.1771 90.5703 49.5625C90.8516 48.7448 91.1589 48.2214 91.4922 47.9922C91.8255 47.763 92.263 47.6484 92.8047 47.6484C92.9714 47.6484 93.2604 47.6615 93.6719 47.6875L93.6797 49.1406C93.1016 49.1406 92.7318 49.1953 92.5703 49.3047C92.4089 49.4193 92.2344 49.7604 92.0469 50.3281C91.7917 51.0938 91.4245 51.5651 90.9453 51.7422C91.638 51.9349 92.224 52.5365 92.7031 53.5469C92.7292 53.599 92.7578 53.6536 92.7891 53.7109L94.0156 56H91.6562L90.5625 53.6016C90.3385 53.1172 90.1432 52.8073 89.9766 52.6719C89.8151 52.5312 89.5729 52.4609 89.25 52.4609V56H87.0625V47.7031ZM96.8047 50.2344L94.8125 49.875C95.0365 49.0729 95.4219 48.4792 95.9688 48.0938C96.5156 47.7083 97.3281 47.5156 98.4062 47.5156C99.3854 47.5156 100.115 47.6328 100.594 47.8672C101.073 48.0964 101.409 48.3906 101.602 48.75C101.799 49.1042 101.898 49.7578 101.898 50.7109L101.875 53.2734C101.875 54.0026 101.909 54.5417 101.977 54.8906C102.049 55.2344 102.182 55.6042 102.375 56H100.203C100.146 55.8542 100.076 55.638 99.9922 55.3516C99.9557 55.2214 99.9297 55.1354 99.9141 55.0938C99.5391 55.4583 99.138 55.7318 98.7109 55.9141C98.2839 56.0964 97.8281 56.1875 97.3438 56.1875C96.4896 56.1875 95.8151 55.9557 95.3203 55.4922C94.8307 55.0286 94.5859 54.4427 94.5859 53.7344C94.5859 53.2656 94.6979 52.849 94.9219 52.4844C95.1458 52.1146 95.4583 51.8333 95.8594 51.6406C96.2656 51.4427 96.849 51.2708 97.6094 51.125C98.6354 50.9323 99.3464 50.7526 99.7422 50.5859V50.3672C99.7422 49.9453 99.638 49.6458 99.4297 49.4688C99.2214 49.2865 98.8281 49.1953 98.25 49.1953C97.8594 49.1953 97.5547 49.2734 97.3359 49.4297C97.1172 49.5807 96.9401 49.849 96.8047 50.2344ZM99.7422 52.0156C99.4609 52.1094 99.0156 52.2214 98.4062 52.3516C97.7969 52.4818 97.3984 52.6094 97.2109 52.7344C96.9245 52.9375 96.7812 53.1953 96.7812 53.5078C96.7812 53.8151 96.8958 54.0807 97.125 54.3047C97.3542 54.5286 97.6458 54.6406 98 54.6406C98.3958 54.6406 98.7734 54.5104 99.1328 54.25C99.3984 54.0521 99.5729 53.8099 99.6562 53.5234C99.7135 53.3359 99.7422 52.9792 99.7422 52.4531V52.0156ZM104.008 47.7031H106.055V48.9219C106.32 48.5052 106.68 48.1667 107.133 47.9062C107.586 47.6458 108.089 47.5156 108.641 47.5156C109.604 47.5156 110.422 47.8932 111.094 48.6484C111.766 49.4036 112.102 50.4557 112.102 51.8047C112.102 53.1901 111.763 54.2682 111.086 55.0391C110.409 55.8047 109.589 56.1875 108.625 56.1875C108.167 56.1875 107.75 56.0964 107.375 55.9141C107.005 55.7318 106.615 55.4193 106.203 54.9766V59.1562H104.008V47.7031ZM106.18 51.7109C106.18 52.6432 106.365 53.3333 106.734 53.7812C107.104 54.224 107.555 54.4453 108.086 54.4453C108.596 54.4453 109.021 54.2422 109.359 53.8359C109.698 53.4245 109.867 52.7526 109.867 51.8203C109.867 50.9505 109.693 50.3047 109.344 49.8828C108.995 49.4609 108.562 49.25 108.047 49.25C107.51 49.25 107.065 49.4583 106.711 49.875C106.357 50.2865 106.18 50.8984 106.18 51.7109ZM113.797 44.5781H115.992V46.1484C115.992 46.7839 115.938 47.2865 115.828 47.6562C115.719 48.0208 115.51 48.349 115.203 48.6406C114.901 48.9323 114.516 49.1615 114.047 49.3281L113.617 48.4219C114.06 48.276 114.375 48.0755 114.562 47.8203C114.75 47.5651 114.849 47.2161 114.859 46.7734H113.797V44.5781ZM122.406 52.4844H120.117C120.19 53.151 120.372 53.651 120.664 53.9844C120.956 54.3177 121.359 54.4844 121.875 54.4844C122.693 54.4844 123.193 54.0417 123.375 53.1562L125.547 53.5547C125.01 55.3099 123.758 56.1875 121.789 56.1875C120.497 56.1875 119.508 55.8099 118.82 55.0547C118.133 54.2995 117.789 53.224 117.789 51.8281C117.789 50.5104 118.128 49.4635 118.805 48.6875C119.482 47.9062 120.482 47.5156 121.805 47.5156C123.648 47.5156 124.833 48.2839 125.359 49.8203L123.219 50.2188C123.141 49.8854 122.956 49.6354 122.664 49.4688C122.378 49.3021 122.073 49.2188 121.75 49.2188C121.24 49.2188 120.844 49.3802 120.562 49.7031C120.281 50.0208 120.117 50.5026 120.07 51.1484H122.406V52.4844ZM127.086 47.7031H129.133V48.9219C129.398 48.5052 129.758 48.1667 130.211 47.9062C130.664 47.6458 131.167 47.5156 131.719 47.5156C132.682 47.5156 133.5 47.8932 134.172 48.6484C134.844 49.4036 135.18 50.4557 135.18 51.8047C135.18 53.1901 134.841 54.2682 134.164 55.0391C133.487 55.8047 132.667 56.1875 131.703 56.1875C131.245 56.1875 130.828 56.0964 130.453 55.9141C130.083 55.7318 129.693 55.4193 129.281 54.9766V59.1562H127.086V47.7031ZM129.258 51.7109C129.258 52.6432 129.443 53.3333 129.812 53.7812C130.182 54.224 130.633 54.4453 131.164 54.4453C131.674 54.4453 132.099 54.2422 132.438 53.8359C132.776 53.4245 132.945 52.7526 132.945 51.8203C132.945 50.9505 132.771 50.3047 132.422 49.8828C132.073 49.4609 131.641 49.25 131.125 49.25C130.589 49.25 130.143 49.4583 129.789 49.875C129.435 50.2865 129.258 50.8984 129.258 51.7109Z" fill="#3F3F3F"/>
</svg>
